<?xml version="1.0" encoding="utf-8"?>
<!-- Generator: Adobe Illustrator 25.0.0, SVG Export Plug-In . SVG Version: 6.00 Build 0)  -->
<svg version="1.1" id="Layer_1" xmlns="http://www.w3.org/2000/svg" xmlns:xlink="http://www.w3.org/1999/xlink" x="0px" y="0px"
	 viewBox="0 0 300 300" style="enable-background:new 0 0 300 300;" xml:space="preserve">
<style type="text/css">
	.st0{fill:#004A9C;}
	.st1{fill:#F06543;}
	.st2{fill:#3392FF;}
</style>
<g transform="translate(-166 -1509.584)">
	<path class="st0" d="M218.42,1674.37l0.14,14.25c-0.41,4.33,0,8.7,1.22,12.88c1.63,3.45,4.82,5.91,8.57,6.61
		c2.14,0.19,4.29,0.21,6.44,0.07l7.12-0.17l-3.68,3.68c-0.09-5.16,1.87-10.15,5.45-13.87c3.62-3.78,8.63-5.93,13.87-5.92
		c5.24,0,10.24,2.15,13.85,5.94c3.53,3.74,5.49,8.7,5.47,13.85l-3.68-3.68l83.4-0.81l-4.51,4.51c-0.05-5.35,2.04-10.5,5.8-14.32
		c3.79-3.82,8.94-5.98,14.32-6.01c5.4-0.03,10.6,2.09,14.45,5.88c3.85,3.82,6.03,9.02,6.07,14.45l-4.88-4.88l10.21-0.08
		c2.39,0.18,4.77-0.51,6.7-1.93c1.83-1.33,3.14-3.27,3.7-5.46c0.36-2.94,0.44-5.9,0.24-8.85v-10.21l0.03-5.11
		c0.07-1.21-0.06-2.42-0.37-3.58c-1.41-4.66-5.96-7.65-10.79-7.08l-10.36-0.09c-4.56-0.16-8.92-1.9-12.33-4.92
		c-1.69-1.49-3.1-3.26-4.19-5.24l-2.41-4.63l-4.68-9.08l-9.34-18.17c-1.06-2.68-2.65-5.11-4.68-7.16c-1.94-1.75-4.34-2.92-6.91-3.36
		c-2.21-0.37-6.35-0.19-9.54-0.29l-10.21-0.11l-20.43-0.21l-10.21-0.1c-2.92-0.35-5.87,0.03-8.61,1.1
		c-2.48,1.08-4.58,2.87-6.03,5.15c-1.2,2.05-2.94,5.8-4.46,8.6l-9.87,17.9l-4.95,8.94c-1.94,3.71-5.09,6.65-8.92,8.34
		c-3.63,1.37-7.54,1.85-11.39,1.39c-3.22-0.18-6.44-0.18-9.66,0C222.65,1663.7,218.53,1668.61,218.42,1674.37z M213.2,1674.37
		c0-8.38,5.89-15.59,14.1-17.28c3.56-0.4,7.15-0.59,10.73-0.56c2.94,0.28,5.91-0.16,8.65-1.29c2.41-1.19,4.33-3.19,5.44-5.65
		l4.55-9.15l9.15-18.27c1.6-3.2,3.37-6.31,5.31-9.31c2.49-3.32,5.85-5.89,9.71-7.43c3.66-1.33,7.56-1.9,11.44-1.67l10.21-0.11
		l20.43-0.21l10.21-0.11c3.62-0.15,7.25-0.09,10.86,0.18c4.19,0.62,8.12,2.43,11.33,5.2c2.89,2.69,5.22,5.93,6.83,9.54l9.66,17.99
		l4.82,9.02l2.37,4.4c0.58,1.01,1.32,1.91,2.2,2.67c1.76,1.51,3.99,2.36,6.31,2.4l10.07-0.06c4.42-0.25,8.8,0.9,12.51,3.3
		c3.82,2.56,6.65,6.35,8.02,10.74c0.63,2.11,0.93,4.31,0.88,6.52l0.04,5.11v10.21c0.19,3.85-0.06,7.71-0.77,11.5
		c-1.22,4.45-3.95,8.33-7.73,10.99c-3.67,2.57-8.08,3.86-12.56,3.65l-10.21-0.08l-5.06-0.04l0.19-4.84
		c0.04-5.99-4.77-10.88-10.76-10.95c-6.09-0.03-11.06,4.86-11.15,10.95l0.04,4.51l-4.51-0.05l-83.4-0.81l-3.74-0.03l0.06-3.65
		c-0.18-6.45-5.51-11.56-11.96-11.48c-3.06,0-6.01,1.15-8.26,3.22c-2.28,2.16-3.6,5.13-3.69,8.26l-0.11,3.77l-3.57-0.08l-7.12-0.17
		c-2.61,0.05-5.22-0.13-7.79-0.53c-5.73-1.33-10.46-5.34-12.69-10.77c-1.02-2.59-1.45-5.37-1.29-8.15l0.08-7.12L213.2,1674.37z"/>
	<path class="st0" d="M257.51,1732.54c-11.51-0.01-20.84-9.34-20.85-20.85c0.01-11.51,9.34-20.84,20.85-20.85
		c11.51,0.01,20.84,9.34,20.85,20.85C278.35,1723.21,269.02,1732.53,257.51,1732.54z M257.51,1701.28
		c-5.75,0.01-10.41,4.67-10.42,10.42c0.01,5.75,4.67,10.42,10.42,10.43c5.76-0.01,10.42-4.67,10.43-10.43
		C267.93,1705.94,263.27,1701.28,257.51,1701.28L257.51,1701.28z"/>
	<path class="st0" d="M372.17,1732.54c-11.51-0.01-20.84-9.34-20.85-20.85c0.01-11.51,9.34-20.84,20.85-20.85
		c11.51,0.01,20.84,9.34,20.85,20.85C393.01,1723.21,383.68,1732.53,372.17,1732.54z M372.17,1701.28
		c-5.75,0.01-10.41,4.67-10.42,10.42c0,5.75,4.67,10.42,10.42,10.43c5.75-0.01,10.42-4.67,10.42-10.43
		C382.59,1705.94,377.93,1701.28,372.17,1701.28L372.17,1701.28z"/>
	<path class="st1" d="M284.38,1629.5c-2.74,9.29-5.34,17.82-8.06,26.13l-3.18-4.7c27.8-1.35,55.6-1.92,83.4-1.72l-4.77,7.05
		c-3.46-8.69-6.77-17.45-10.03-26.21l4.39,2.97c-9.98-0.23-20.02-0.86-30.23-1.33C305.65,1631.12,295.22,1630.34,284.38,1629.5z
		 M282.75,1627.1c10-0.84,20.42-1.62,31.04-2.19c10.64-0.47,21.43-1.1,32.3-1.33c1.87-0.04,3.57,1.05,4.31,2.77l0.08,0.2
		c3.68,8.61,7.32,17.23,10.81,25.9c1.05,2.63-0.22,5.61-2.85,6.68c-0.62,0.24-1.27,0.37-1.93,0.37c-27.8,0.23-55.6-0.35-83.4-1.72
		h-0.35c-1.81-0.09-3.21-1.63-3.13-3.45c0.02-0.43,0.13-0.84,0.31-1.23C274.19,1644.02,278.54,1635.18,282.75,1627.1L282.75,1627.1z
		"/>
	<path class="st1" d="M316.29,1628.31c2.47,2.9,3.81,6.61,3.75,10.42c0.07,3.82-1.27,7.52-3.75,10.42
		c-0.69,0.79-1.89,0.88-2.69,0.21c-0.08-0.06-0.14-0.13-0.21-0.21c-2.49-2.9-3.82-6.6-3.75-10.42c-0.05-3.81,1.28-7.52,3.75-10.42
		c0.69-0.79,1.88-0.89,2.69-0.22C316.15,1628.16,316.22,1628.23,316.29,1628.31z"/>
	<path class="st2" d="M292.54,1602.24c-0.96-3.43-1.72-6.91-2.25-10.43c-0.25-1.7,0.91-3.28,2.61-3.54l0,0l1.06-0.15
		c13.83-2,27.87-2,41.7,0l1.07,0.15c1.7,0.25,2.89,1.82,2.65,3.53l0,0c-0.53,3.52-1.29,7-2.26,10.43c-0.23,0.8-1.06,1.26-1.86,1.04
		c-0.5-0.14-0.89-0.54-1.04-1.04c-0.98-3.42-1.73-6.91-2.26-10.43l3.71,3.72c-13.83,2-27.87,2-41.7,0l3.7-3.7
		c-0.53,3.52-1.29,7-2.25,10.43c-0.23,0.8-1.06,1.26-1.86,1.04C293.06,1603.13,292.67,1602.74,292.54,1602.24z"/>
</g>
</svg>
