<?xml version="1.0" encoding="utf-8"?>
<!-- Generator: Adobe Illustrator 25.0.0, SVG Export Plug-In . SVG Version: 6.00 Build 0)  -->
<svg version="1.1" id="Layer_1" xmlns="http://www.w3.org/2000/svg" xmlns:xlink="http://www.w3.org/1999/xlink" x="0px" y="0px"
	 viewBox="0 0 300 300" style="enable-background:new 0 0 300 300;" xml:space="preserve">
<style type="text/css">
	.st0{fill:none;}
	.st1{fill:#3392FF;}
	.st2{fill:#005BAA;}
	.st3{fill:#004A9C;}
	.st4{fill:#F17455;}
</style>
<g transform="translate(-267.079 -319.851)">
	<path class="st0" d="M450.54,529.59c0.34,4.77,4.39,8.43,9.17,8.3h0.04c3.91,0.18,7.29-2.71,7.71-6.61
		c-0.39-4.32-3.99-7.63-8.33-7.67C454.4,523.75,450.5,526.46,450.54,529.59z"/>
	<path class="st0" d="M325.94,400.5L325.94,400.5c-1.27,6.84,0.77,9.21,6.92,8.37c4.18-0.61,8.29-1.6,13.32-2.6
		C340.64,397.69,332.32,402.75,325.94,400.5z"/>
	<path class="st0" d="M456.99,515.77h-55.1c0.05,0.04,0.09,0.1,0.14,0.14h54.81C456.89,515.87,456.93,515.81,456.99,515.77z"/>
	<path class="st0" d="M402.03,515.92l0.04,0.04h54.71l0.04-0.04H402.03z"/>
	<path class="st0" d="M486.32,427.57c-5.13-0.04-10.26,0.29-15.36,0.22c-34.93-0.48-69.05-3.51-103.98-4
		c-5.75-0.03-11.49-0.37-17.2-1.04c2,6.21,3.88,15.61,5.71,21.55c4.48,14.54,8.97,29.08,13.3,43.68c0.8,2.7,2.23,3.26,4.78,3.26
		c16.36,0,32.72,0.44,49.07,0.15c14.81-0.26,29.62-1.27,44.43-1.97c4.15,0,7.87-2.56,9.35-6.44c2.21-5.21,4.37-10.44,6.28-15.77
		c3.59-10.04,7.12-20.11,10.4-30.26C495.5,429.45,494.09,427.64,486.32,427.57z M424.23,470.98c-8.66,2.72-17.7,4.02-26.77,3.86
		c-9.07,0.15-18.11-1.15-26.77-3.86c-0.82-0.28-1.26-1.18-0.97-2c0.16-0.46,0.52-0.82,0.97-0.97c8.66-2.71,17.7-4.02,26.77-3.86
		c9.07-0.17,18.12,1.13,26.77,3.86c0.82,0.28,1.26,1.17,0.98,1.99v0.01C425.04,470.46,424.68,470.82,424.23,470.98L424.23,470.98z
		 M445.62,449.55c-12.3,2.74-24.87,4.04-37.47,3.86c-12.6,0.15-25.17-1.14-37.47-3.86c-0.82-0.19-1.33-1.01-1.14-1.83
		c0.13-0.56,0.57-1.01,1.14-1.14c12.3-2.72,24.87-4.02,37.47-3.86c12.6-0.18,25.17,1.12,37.47,3.86c0.82,0.2,1.32,1.02,1.12,1.84
		c-0.13,0.55-0.55,0.98-1.09,1.12L445.62,449.55z"/>
	<path class="st0" d="M387.26,529.25c0.23,4.79,4.14,8.57,8.93,8.64c4.06,0.29,7.63-2.66,8.11-6.69c-0.49-4.15-3.89-7.35-8.06-7.59
		C391.73,523.54,387.34,526.31,387.26,529.25z"/>
	<path class="st1" d="M444.94,525.93c-2.5,4.9-1.44,10.86,2.59,14.59c0.24,0.28,0.49,0.56,0.75,0.82
		c6.25,6.44,16.53,6.61,22.98,0.36c3.95-3.5,5.53-8.97,4.05-14.03c-1.53-5.08-5.06-9.33-9.77-11.76h-10.93
		C450.99,518.86,447.75,522.22,444.94,525.93z M467.05,531.28c-0.42,3.89-3.8,6.79-7.71,6.61h-0.04c-4.78,0.13-8.83-3.52-9.17-8.3
		c-0.04-3.13,3.83-5.84,8.6-5.97c4.33,0.03,7.93,3.34,8.33,7.65v0.01H467.05z"/>
	<path class="st2" d="M389.88,515.92l0.23,0.03h14.69l-0.04-0.03H389.88z"/>
	<path class="st1" d="M391.67,516.22c-11.57,10.21-13.41,16.39-7.37,23.89c5.43,6.87,15.32,8.21,22.39,3.03
		c4.54-2.98,6.93-8.32,6.14-13.69c-1.15-5.22-3.92-9.95-7.9-13.51h-14.69C390.66,516.01,391.1,516.11,391.67,516.22z M404.31,531.2
		c-0.48,4.04-4.05,6.99-8.11,6.69c-4.79-0.07-8.7-3.86-8.93-8.64c0.07-2.94,4.47-5.71,8.98-5.64
		C400.43,523.85,403.83,527.05,404.31,531.2L404.31,531.2z"/>
	<path class="st2" d="M455.03,515.92h10.91l-0.06-0.04h-10.82L455.03,515.92z"/>
	<path class="st3" d="M491.04,420.17c-1.43-0.19-2.86-0.28-4.3-0.26c-26.26-0.24-52.53-0.52-78.8-0.68c-16.9-0.08-33.78,0-51.37,0
		c-1.57-4.78-3.35-10.1-5.09-15.47c-1.13-5.67-5.9-9.9-11.67-10.34c-5.68,0.1-11.34,0.64-16.93,1.63c-0.77,0.09-1.46,0.52-1.88,1.17
		c-2.25,3.81-2.68,8.43-1.15,12.58c1.68,3.92,5.56,6.45,9.83,6.42c3.11-0.02,6.21-0.34,9.26-0.95c6.08-1.09,6.33-1,8.22,4.91
		c8.89,27.82,17.9,55.61,26.61,83.49c1.71,7.58,8.36,13.01,16.13,13.16c0.13,0.01,0.25,0.03,0.37,0.06h13.95
		c-0.04-0.04-0.08-0.09-0.13-0.13h51.67c-0.05,0.04-0.09,0.09-0.14,0.13h10.15c-0.07-0.04-0.13-0.09-0.2-0.12
		c2.19,0,3.61-0.04,5.02,0c2.92,0.08,4.85-1.15,4.98-4.14c0.14-2.99-1.69-4.42-4.57-4.62c-2.21-0.16-4.42-0.33-6.62-0.33
		c-23.28,0-46.55,0.12-69.83,0.12c-8.53,0-10.75-0.53-12.79-11.47c10.24,0,20.5,0.17,30.75-0.04c18.97-0.38,37.94-0.87,56.9-1.46
		c10.62-0.34,15.72-7.3,19.04-16.12c1.48-3.92,2.94-7.89,4.3-11.86c3.27-9.58,6.76-19.09,9.6-28.8
		C505.18,427.34,501.01,421.68,491.04,420.17z M332.05,407.69c-5.77,0.78-7.68-1.41-6.49-7.73l0,0c5.98,2.08,13.78-2.63,19,5.33
		c-4.76,0.92-8.62,1.83-12.54,2.4L332.05,407.69L332.05,407.69z M493.74,436.89c-3.07,9.37-6.39,18.67-9.75,27.94
		c-1.79,4.91-3.82,9.75-5.88,14.56c-1.42,3.6-4.9,5.96-8.77,5.95c-13.88,0.64-27.77,1.58-41.66,1.84
		c-15.36,0.27-30.71-0.14-46.02-0.14c-2.39,0-3.73-0.52-4.48-3.01c-4.05-13.48-8.27-26.9-12.47-40.33
		c-1.71-5.48-3.47-14.16-5.35-19.9c5.36,0.61,10.75,0.93,16.15,0.96c32.76,0.46,64.76,3.26,97.52,3.69c4.78,0.06,9.59-0.25,14.4-0.2
		c7.25,0.04,8.55,1.73,6.3,8.65L493.74,436.89L493.74,436.89z"/>
	<path class="st4" d="M451.43,446.6c-12.3-2.74-24.87-4.03-37.47-3.86c-12.6-0.16-25.17,1.14-37.47,3.86
		c-0.82,0.19-1.33,1.01-1.14,1.83c0.13,0.56,0.57,1.01,1.14,1.14c12.3,2.72,24.87,4.02,37.47,3.86c12.6,0.17,25.17-1.12,37.47-3.86
		c0.55-0.14,0.99-0.57,1.12-1.12C452.76,447.63,452.25,446.8,451.43,446.6z"/>
	<path class="st4" d="M430.99,466.59c-8.66-2.73-17.7-4.03-26.77-3.86c-9.07-0.15-18.11,1.15-26.77,3.86
		c-0.82,0.28-1.26,1.18-0.97,2c0.16,0.46,0.52,0.82,0.97,0.97c8.66,2.7,17.7,4,26.77,3.86c9.07,0.17,18.12-1.14,26.77-3.86
		c0.46-0.16,0.81-0.52,0.98-0.98C432.25,467.77,431.82,466.88,430.99,466.59C430.99,466.6,430.99,466.6,430.99,466.59z"/>
</g>
</svg>
