<?xml version="1.0" encoding="utf-8"?>
<!-- Generator: Adobe Illustrator 25.0.0, SVG Export Plug-In . SVG Version: 6.00 Build 0)  -->
<svg version="1.1" id="Layer_1" xmlns="http://www.w3.org/2000/svg" xmlns:xlink="http://www.w3.org/1999/xlink" x="0px" y="0px"
	 viewBox="0 0 300 300" style="enable-background:new 0 0 300 300;" xml:space="preserve">
<style type="text/css">
	.st0{fill:#004A9C;}
	.st1{fill:#3392FF;}
	.st2{fill:#F06543;}
</style>
<g transform="translate(-168 -1582.972)">
	<path class="st0" d="M266.79,1650.92c24.8-0.07,49.6-1.05,74.41-1.52c6.2-0.2,12.4-0.24,18.6-0.11l9.3,0.27
		c3.48,0.03,6.95,0.52,10.3,1.46c14.14,4.04,23.96,16.86,24.18,31.57l0.76,74.41l0.15,18.6l0.08,9.3c0.11,3.6-0.31,7.21-1.26,10.69
		c-4.17,14.76-17.58,25-32.91,25.15l-74.4-0.56l-18.6-0.15l-9.3-0.1c-3.56,0.05-7.1-0.42-10.52-1.41
		c-14.28-4.26-24.05-17.41-23.99-32.31l0.39-37.21c-0.1-12.39-1-24.8-0.34-37.2l0.44-18.6l0.22-9.3c-0.02-3.44,0.49-6.86,1.49-10.15
		C240.05,1660.18,252.59,1650.96,266.79,1650.92z M266.79,1656.68c-11.46,0.08-21.43,7.86-24.31,18.95
		c-0.87,5.8-1.05,11.69-0.53,17.54l0.43,18.6c0.67,12.41-0.23,24.8-0.33,37.2l0.39,37.21c0.17,10.77,7.42,20.13,17.79,23.01
		c2.56,0.68,5.22,0.96,7.87,0.84l9.3-0.1l18.6-0.15l74.4-0.57c10.34,0.04,19.46-6.73,22.42-16.64c0.72-2.5,1.05-5.1,0.98-7.7
		l0.07-9.3l0.15-18.6l0.77-74.41c0.11-10.96-7.09-20.66-17.61-23.75c-2.63-0.72-5.36-0.99-8.08-0.78l-9.3,0.27
		c-6.2,0.14-12.41,0.09-18.6-0.1C316.39,1657.73,291.59,1656.74,266.79,1656.68z"/>
	<path class="st0" d="M238,1732.79c5.31-2.84,11.25-4.27,17.27-4.16c6.02-0.14,11.97,1.3,17.27,4.16c0.88,0.5,1.19,1.62,0.69,2.5
		c0,0,0,0.01-0.01,0.01c-0.17,0.28-0.4,0.52-0.68,0.68c-5.3,2.86-11.25,4.3-17.27,4.16c-6.02,0.12-11.97-1.31-17.27-4.16
		c-0.88-0.5-1.19-1.62-0.69-2.5c0,0,0,0,0-0.01C237.48,1733.2,237.72,1732.96,238,1732.79z"/>
	<path class="st0" d="M238,1698.26c5.3-2.85,11.25-4.28,17.27-4.16c6.02-0.14,11.97,1.29,17.27,4.16c0.88,0.5,1.19,1.62,0.69,2.5
		c0,0,0,0.01-0.01,0.01c-0.17,0.28-0.4,0.52-0.68,0.68c-5.3,2.86-11.25,4.29-17.27,4.15c-6.02,0.12-11.97-1.31-17.27-4.15
		c-0.88-0.5-1.19-1.62-0.69-2.5c0,0,0,0,0-0.01C237.48,1698.66,237.72,1698.42,238,1698.26z"/>
	<path class="st0" d="M238,1767.34c5.3-2.85,11.25-4.28,17.27-4.16c6.02-0.14,11.97,1.29,17.27,4.16c0.88,0.5,1.19,1.62,0.69,2.5
		c0,0,0,0.01-0.01,0.01c-0.17,0.28-0.4,0.52-0.68,0.68c-5.3,2.87-11.25,4.3-17.27,4.16c-6.02,0.12-11.97-1.31-17.27-4.16
		c-0.88-0.5-1.19-1.62-0.69-2.5c0,0,0,0,0-0.01C237.48,1767.73,237.72,1767.5,238,1767.34z"/>
	<path class="st0" d="M364.65,1732.79c5.31-2.84,11.25-4.27,17.27-4.16c6.02-0.14,11.97,1.3,17.27,4.16c0.88,0.5,1.19,1.62,0.69,2.5
		c0,0,0,0.01-0.01,0.01c-0.16,0.29-0.4,0.52-0.68,0.68c-5.3,2.86-11.25,4.3-17.27,4.16c-6.02,0.12-11.97-1.31-17.27-4.16
		c-0.88-0.5-1.19-1.62-0.7-2.5c0,0,0-0.01,0-0.01C364.12,1733.2,364.36,1732.96,364.65,1732.79z"/>
	<path class="st0" d="M364.65,1698.26c5.3-2.85,11.25-4.28,17.27-4.16c6.02-0.14,11.97,1.29,17.27,4.16c0.88,0.5,1.19,1.62,0.69,2.5
		c0,0,0,0.01-0.01,0.01c-0.16,0.29-0.4,0.52-0.68,0.68c-5.3,2.86-11.25,4.29-17.27,4.15c-6.02,0.12-11.97-1.31-17.27-4.15
		c-0.88-0.5-1.19-1.62-0.7-2.5c0,0,0-0.01,0-0.01C364.12,1698.66,364.36,1698.42,364.65,1698.26z"/>
	<path class="st1" d="M274.14,1653.8c2.95,26.76,4.34,53.67,4.16,80.59c0.2,26.92-1.19,53.83-4.16,80.59
		c-0.11,0.88-0.91,1.51-1.79,1.4c0,0,0,0-0.01,0c-0.73-0.09-1.31-0.67-1.41-1.4c-2.96-26.76-4.35-53.67-4.15-80.59
		c-0.18-26.92,1.21-53.83,4.15-80.59c0.1-0.88,0.9-1.51,1.79-1.41c0,0,0.01,0,0.01,0C273.47,1652.48,274.06,1653.06,274.14,1653.8z"
		/>
	<path class="st1" d="M366.25,1653.8c2.95,26.76,4.34,53.67,4.16,80.59c0.2,26.92-1.19,53.83-4.16,80.59
		c-0.11,0.88-0.91,1.51-1.79,1.4c-0.73-0.09-1.31-0.67-1.4-1.4c-2.97-26.76-4.36-53.67-4.16-80.59
		c-0.18-26.92,1.21-53.83,4.16-80.59c0.1-0.88,0.9-1.51,1.78-1.41c0,0,0.01,0,0.01,0C365.58,1652.48,366.16,1653.06,366.25,1653.8z"
		/>
	<path class="st0" d="M364.65,1767.34c5.3-2.85,11.25-4.28,17.27-4.16c6.02-0.14,11.97,1.29,17.27,4.16c0.88,0.5,1.19,1.62,0.69,2.5
		c0,0,0,0.01-0.01,0.01c-0.16,0.28-0.4,0.52-0.68,0.68c-5.29,2.87-11.25,4.3-17.27,4.16c-6.02,0.12-11.97-1.31-17.27-4.16
		c-0.88-0.5-1.19-1.62-0.7-2.5c0,0,0-0.01,0-0.01C364.12,1767.74,364.36,1767.5,364.65,1767.34z"/>
	<path class="st2" d="M342.54,1734.4c-15.82-7.31-29.23-11.8-41.34-18.38l7.99-4.65c0.53,15.35,0.53,30.7,0,46.06l-7.98-4.63
		C313.32,1746.2,326.74,1741.7,342.54,1734.4z M345.74,1734.4c-11.07,8.05-24.51,18.89-39.25,27.65c-2.51,1.49-5.75,0.67-7.24-1.83
		c-0.45-0.76-0.7-1.61-0.74-2.49v-0.31c-0.54-15.35-0.54-30.7,0-46.06v-0.27c0.1-2.92,2.55-5.2,5.47-5.11c0,0,0,0,0.01,0
		c0.89,0.03,1.75,0.29,2.51,0.74C321.25,1715.49,334.7,1726.34,345.74,1734.4L345.74,1734.4z"/>
</g>
</svg>
